{
  "accessors": [
    {
      "bufferView": 2,
      "componentType": 5126,
      "count": 65532,
      "max": [
        20.061344146728516,
        9.5322093963623047,
        20.061344146728516
      ],
      "min": [
        -18.811563491821289,
        -15.639847755432129,
        -10.061343193054199
      ],
      "type": "VEC3"
    },
    {
      "bufferView": 2,
      "byteOffset": 786384,
      "componentType": 5126,
      "count": 65532,
      "max": [
        0.99999189376831055,
        0.99999469518661499,
        0.99998348951339722
      ],
      "min": [
        -0.99999254941940308,
        -0.99999988079071045,
        -0.99999922513961792
      ],
      "type": "VEC3"
    },
    {
      "bufferView": 1,
      "componentType": 5126,
      "count": 65532,
      "max": [
        0.99825102090835571,
        0.9989590048789978
      ],
      "min": [
        0.0010450000409036875,
        0.00241499999538064
      ],
      "type": "VEC2"
    },
    {
      "bufferView": 0,
      "componentType": 5125,
      "count": 301722,
      "max": [
        65531
      ],
      "min": [
        0
      ],
      "type": "SCALAR"
    },
    {
      "bufferView": 2,
      "byteOffset": 1572768,
      "componentType": 5126,
      "count": 44133,
      "max": [
        20.061344146728516,
        9.6642513275146484,
        20.061344146728516
      ],
      "min": [
        -20.061344146728516,
        -14.720094680786133,
        -10.061343193054199
      ],
      "type": "VEC3"
    },
    {
      "bufferView": 2,
      "byteOffset": 2102364,
      "componentType": 5126,
      "count": 44133,
      "max": [
        0.99997776746749878,
        0.99995958805084229,
        0.99998581409454346
      ],
      "min": [
        -0.9999769926071167,
        -0.99999946355819702,
        -0.99998986721038818
      ],
      "type": "VEC3"
    },
    {
      "bufferView": 1,
      "byteOffset": 524256,
      "componentType": 5126,
      "count": 44133,
      "max": [
        0.99896997213363647,
        0.99894899129867554
      ],
      "min": [
        0.0010430000256747007,
        0.0013709999620914459
      ],
      "type": "VEC2"
    },
    {
      "bufferView": 0,
      "byteOffset": 1206888,
      "componentType": 5125,
      "count": 171453,
      "max": [
        44132
      ],
      "min": [
        0
      ],
      "type": "SCALAR"
    },
    {
      "bufferView": 2,
      "byteOffset": 2631960,
      "componentType": 5126,
      "count": 65532,
      "max": [
        20.061344146728516,
        9.6424827575683594,
        20.061344146728516
      ],
      "min": [
        -20.061344146728516,
        -15.639847755432129,
        -10.061343193054199
      ],
      "type": "VEC3"
    },
    {
      "bufferView": 2,
      "byteOffset": 3418344,
      "componentType": 5126,
      "count": 65532,
      "max": [
        0.9999958872795105,
        0.99999678134918213,
        0.9999619722366333
      ],
      "min": [
        -0.99999767541885376,
        -0.9999992847442627,
        -0.99997419118881226
      ],
      "type": "VEC3"
    },
    {
      "bufferView": 1,
      "byteOffset": 877320,
      "componentType": 5126,
      "count": 65532,
      "max": [
        0.9990379810333252,
        0.9989590048789978
      ],
      "min": [
        0.0010400000028312206,
        0.0019480000482872128
      ],
      "type": "VEC2"
    },
    {
      "bufferView": 0,
      "byteOffset": 1892700,
      "componentType": 5125,
      "count": 262995,
      "max": [
        65531
      ],
      "min": [
        0
      ],
      "type": "SCALAR"
    },
    {
      "bufferView": 2,
      "byteOffset": 4204728,
      "componentType": 5126,
      "count": 51528,
      "max": [
        20.061344146728516,
        9.7545785903930664,
        20.061344146728516
      ],
      "min": [
        -20.061344146728516,
        -15.483550071716309,
        -10.061343193054199
      ],
      "type": "VEC3"
    },
    {
      "bufferView": 2,
      "byteOffset": 4823064,
      "componentType": 5126,
      "count": 51528,
      "max": [
        0.99999552965164185,
        0.99998271465301514,
        0.99997913837432861
      ],
      "min": [
        -0.99999243021011353,
        -0.9999992847442627,
        -0.9999510645866394
      ],
      "type": "VEC3"
    },
    {
      "bufferView": 1,
      "byteOffset": 1401576,
      "componentType": 5126,
      "count": 51528,
      "max": [
        0.99907499551773071,
        0.99895602464675903
      ],
      "min": [
        0.0010400000028312206,
        0.0014720000326633453
      ],
      "type": "VEC2"
    },
    {
      "bufferView": 0,
      "byteOffset": 2944680,
      "componentType": 5125,
      "count": 162540,
      "max": [
        51527
      ],
      "min": [
        0
      ],
      "type": "SCALAR"
    },
    {
      "bufferView": 2,
      "byteOffset": 5441400,
      "componentType": 5126,
      "count": 65532,
      "max": [
        20.061344146728516,
        9.6383323669433594,
        20.061344146728516
      ],
      "min": [
        -20.061344146728516,
        -15.633068084716797,
        -6.0419869422912598
      ],
      "type": "VEC3"
    },
    {
      "bufferView": 2,
      "byteOffset": 6227784,
      "componentType": 5126,
      "count": 65532,
      "max": [
        0.99999433755874634,
        0.99999701976776123,
        0.99999266862869263
      ],
      "min": [
        -0.99999260902404785,
        -0.99995273351669312,
        -0.99994790554046631
      ],
      "type": "VEC3"
    },
    {
      "bufferView": 1,
      "byteOffset": 1813800,
      "componentType": 5126,
      "count": 65532,
      "max": [
        0.99873602390289307,
        0.99895697832107544
      ],
      "min": [
        0.0010479999473318458,
        0.0031580000650137663
      ],
      "type": "VEC2"
    },
    {
      "bufferView": 0,
      "byteOffset": 3594840,
      "componentType": 5125,
      "count": 279801,
      "max": [
        65531
      ],
      "min": [
        0
      ],
      "type": "SCALAR"
    },
    {
      "bufferView": 2,
      "byteOffset": 7014168,
      "componentType": 5126,
      "count": 26194,
      "max": [
        20.061344146728516,
        9.2303466796875,
        20.061344146728516
      ],
      "min": [
        -20.061344146728516,
        -15.639847755432129,
        -5.8637781143188477
      ],
      "type": "VEC3"
    },
    {
      "bufferView": 2,
      "byteOffset": 7328496,
      "componentType": 5126,
      "count": 26194,
      "max": [
        0.99999153614044189,
        0.99999988079071045,
        0.99996119737625122
      ],
      "min": [
        -0.9999961256980896,
        -0.99999797344207764,
        -0.99998056888580322
      ],
      "type": "VEC3"
    },
    {
      "bufferView": 1,
      "byteOffset": 2338056,
      "componentType": 5126,
      "count": 26194,
      "max": [
        0.99846798181533813,
        0.99895197153091431
      ],
      "min": [
        0.0010430000256747007,
        0.0012199999764561653
      ],
      "type": "VEC2"
    },
    {
      "bufferView": 0,
      "byteOffset": 4714044,
      "componentType": 5125,
      "count": 101643,
      "max": [
        26193
      ],
      "min": [
        0
      ],
      "type": "SCALAR"
    }
  ],
  "asset": {
    "extras": {
      "author": "HoangHiepVu (https://sketchfab.com/HoangHiepVu)",
      "license": "CC-BY-4.0 (http://creativecommons.org/licenses/by/4.0/)",
      "source": "https://sketchfab.com/3d-models/korean-gate-jardin-dacclimatation-paris-d46dbd1b79b142a6a8a499d629c43f1d",
      "title": "Korean Gate , Jardin d'Acclimatation, Paris"
    },
    "generator": "Sketchfab-8.33.0",
    "version": "2.0"
  },
  "bufferViews": [
    {
      "buffer": 0,
      "byteLength": 5120616,
      "byteOffset": 0,
      "name": "floatBufferViews",
      "target": 34963
    },
    {
      "buffer": 0,
      "byteLength": 2547608,
      "byteOffset": 5120616,
      "byteStride": 8,
      "name": "floatBufferViews",
      "target": 34962
    },
    {
      "buffer": 0,
      "byteLength": 7642824,
      "byteOffset": 7668224,
      "byteStride": 12,
      "name": "floatBufferViews",
      "target": 34962
    }
  ],
  "buffers": [
    {
      "byteLength": 15311048,
      "uri": "scene.bin"
    }
  ],
  "extensionsUsed": [
    "KHR_materials_unlit"
  ],
  "images": [
    {
      "uri": "textures/material_0_baseColor.jpeg"
    },
    {
      "uri": "textures/material_1_baseColor.jpeg"
    },
    {
      "uri": "textures/material_2_baseColor.jpeg"
    }
  ],
  "materials": [
    {
      "doubleSided": true,
      "emissiveFactor": [
        0,
        0,
        0
      ],
      "extensions": {
        "KHR_materials_unlit": {}
      },
      "name": "material_0",
      "pbrMetallicRoughness": {
        "baseColorFactor": [
          1,
          1,
          1,
          1
        ],
        "baseColorTexture": {
          "index": 0,
          "texCoord": 0
        },
        "metallicFactor": 0,
        "roughnessFactor": 1
      }
    },
    {
      "doubleSided": true,
      "emissiveFactor": [
        0,
        0,
        0
      ],
      "extensions": {
        "KHR_materials_unlit": {}
      },
      "name": "material_1",
      "pbrMetallicRoughness": {
        "baseColorFactor": [
          1,
          1,
          1,
          1
        ],
        "baseColorTexture": {
          "index": 1,
          "texCoord": 0
        },
        "metallicFactor": 0,
        "roughnessFactor": 1
      }
    },
    {
      "doubleSided": true,
      "emissiveFactor": [
        0,
        0,
        0
      ],
      "extensions": {
        "KHR_materials_unlit": {}
      },
      "name": "material_2",
      "pbrMetallicRoughness": {
        "baseColorFactor": [
          1,
          1,
          1,
          1
        ],
        "baseColorTexture": {
          "index": 2,
          "texCoord": 0
        },
        "metallicFactor": 0,
        "roughnessFactor": 1
      }
    }
  ],
  "meshes": [
    {
      "primitives": [
        {
          "attributes": {
            "NORMAL": 1,
            "POSITION": 0,
            "TEXCOORD_0": 2
          },
          "indices": 3,
          "material": 0,
          "mode": 4
        }
      ]
    },
    {
      "primitives": [
        {
          "attributes": {
            "NORMAL": 5,
            "POSITION": 4,
            "TEXCOORD_0": 6
          },
          "indices": 7,
          "material": 0,
          "mode": 4
        }
      ]
    },
    {
      "primitives": [
        {
          "attributes": {
            "NORMAL": 9,
            "POSITION": 8,
            "TEXCOORD_0": 10
          },
          "indices": 11,
          "material": 1,
          "mode": 4
        }
      ]
    },
    {
      "primitives": [
        {
          "attributes": {
            "NORMAL": 13,
            "POSITION": 12,
            "TEXCOORD_0": 14
          },
          "indices": 15,
          "material": 1,
          "mode": 4
        }
      ]
    },
    {
      "primitives": [
        {
          "attributes": {
            "NORMAL": 17,
            "POSITION": 16,
            "TEXCOORD_0": 18
          },
          "indices": 19,
          "material": 2,
          "mode": 4
        }
      ]
    },
    {
      "primitives": [
        {
          "attributes": {
            "NORMAL": 21,
            "POSITION": 20,
            "TEXCOORD_0": 22
          },
          "indices": 23,
          "material": 2,
          "mode": 4
        }
      ]
    }
  ],
  "nodes": [
    {
      "children": [
        1
      ],
      "name": "RootNode (gltf orientation matrix)",
      "rotation": [
        -0.70710678118654746,
        -0,
        -0,
        0.70710678118654757
      ]
    },
    {
      "children": [
        2
      ],
      "matrix": [
        1,
        0,
        0,
        0,
        0,
        0,
        -1,
        0,
        0,
        1,
        0,
        0,
        0,
        -7.9426150321960449,
        2.0574421882629395,
        1
      ],
      "name": "RootNode (model correction matrix)"
    },
    {
      "children": [
        3,
        4,
        5,
        6,
        7,
        8
      ],
      "name": "Model.obj.cleaner.gles"
    },
    {
      "mesh": 0,
      "name": ""
    },
    {
      "mesh": 1,
      "name": ""
    },
    {
      "mesh": 2,
      "name": ""
    },
    {
      "mesh": 3,
      "name": ""
    },
    {
      "mesh": 4,
      "name": ""
    },
    {
      "mesh": 5,
      "name": ""
    }
  ],
  "samplers": [
    {
      "magFilter": 9729,
      "minFilter": 9987,
      "wrapS": 10497,
      "wrapT": 10497
    }
  ],
  "scene": 0,
  "scenes": [
    {
      "name": "OSG_Scene",
      "nodes": [
        0
      ]
    }
  ],
  "textures": [
    {
      "sampler": 0,
      "source": 0
    },
    {
      "sampler": 0,
      "source": 1
    },
    {
      "sampler": 0,
      "source": 2
    }
  ]
}

