{
  "accessors": [
    {
      "bufferView": 2,
      "componentType": 5126,
      "count": 65532,
      "max": [
        22.269519805908203,
        4.8142361640930176,
        22.193027496337891
      ],
      "min": [
        4.5121250152587891,
        -6.7293539047241211,
        -3.8077950477600098
      ],
      "type": "VEC3"
    },
    {
      "bufferView": 2,
      "byteOffset": 786384,
      "componentType": 5126,
      "count": 65532,
      "max": [
        0.99560838937759399,
        0.99999171495437622,
        0.99696063995361328
      ],
      "min": [
        -0.99997192621231079,
        -0.99999761581420898,
        -0.99997854232788086
      ],
      "type": "VEC3"
    },
    {
      "bufferView": 3,
      "componentType": 5126,
      "count": 65532,
      "max": [
        0.99999880790710449,
        0.95655876398086548,
        0.99383920431137085,
        1
      ],
      "min": [
        -0.99813693761825562,
        -0.94089299440383911,
        -0.99999946355819702,
        -1
      ],
      "type": "VEC4"
    },
    {
      "bufferView": 3,
      "byteOffset": 1048512,
      "componentType": 5126,
      "count": 65532,
      "max": [
        0.75294101238250732,
        0.75294101238250732,
        0.75294101238250732,
        1
      ],
      "min": [
        0.75294101238250732,
        0.75294101238250732,
        0.75294101238250732,
        1
      ],
      "type": "VEC4"
    },
    {
      "bufferView": 1,
      "componentType": 5126,
      "count": 65532,
      "max": [
        0.99773401021957397,
        0.99923402070999146
      ],
      "min": [
        0.0010169999441131949,
        0.41751301288604736
      ],
      "type": "VEC2"
    },
    {
      "bufferView": 0,
      "componentType": 5125,
      "count": 307818,
      "max": [
        65531
      ],
      "min": [
        0
      ],
      "type": "SCALAR"
    },
    {
      "bufferView": 2,
      "byteOffset": 1572768,
      "componentType": 5126,
      "count": 61202,
      "max": [
        22.251726150512695,
        4.8234171867370605,
        22.167512893676758
      ],
      "min": [
        4.4605507850646973,
        -6.7203860282897949,
        -3.136044979095459
      ],
      "type": "VEC3"
    },
    {
      "bufferView": 2,
      "byteOffset": 2307192,
      "componentType": 5126,
      "count": 61202,
      "max": [
        0.98749947547912598,
        0.99999171495437622,
        0.99923849105834961
      ],
      "min": [
        -0.99999988079071045,
        -0.99999499320983887,
        -0.99999964237213135
      ],
      "type": "VEC3"
    },
    {
      "bufferView": 3,
      "byteOffset": 2097024,
      "componentType": 5126,
      "count": 61202,
      "max": [
        0.99999874830245972,
        0.9628760814666748,
        0.99930751323699951,
        1
      ],
      "min": [
        -0.99989974498748779,
        -0.93831276893615723,
        -0.99999940395355225,
        -1
      ],
      "type": "VEC4"
    },
    {
      "bufferView": 3,
      "byteOffset": 3076256,
      "componentType": 5126,
      "count": 61202,
      "max": [
        0.75294101238250732,
        0.75294101238250732,
        0.75294101238250732,
        1
      ],
      "min": [
        0.75294101238250732,
        0.75294101238250732,
        0.75294101238250732,
        1
      ],
      "type": "VEC4"
    },
    {
      "bufferView": 1,
      "byteOffset": 524256,
      "componentType": 5126,
      "count": 61202,
      "max": [
        0.99901300668716431,
        0.99916201829910278
      ],
      "min": [
        0.00097799999639391899,
        0.42636498808860779
      ],
      "type": "VEC2"
    },
    {
      "bufferView": 0,
      "byteOffset": 1231272,
      "componentType": 5125,
      "count": 214284,
      "max": [
        61201
      ],
      "min": [
        0
      ],
      "type": "SCALAR"
    },
    {
      "bufferView": 2,
      "byteOffset": 3041616,
      "componentType": 5126,
      "count": 295,
      "max": [
        21.798879623413086,
        4.6046271324157715,
        21.882118225097656
      ],
      "min": [
        5.150184154510498,
        -6.6932110786437988,
        -2.5855579376220703
      ],
      "type": "VEC3"
    },
    {
      "bufferView": 2,
      "byteOffset": 3045156,
      "componentType": 5126,
      "count": 295,
      "max": [
        0.99560838937759399,
        0.99989575147628784,
        0.98820728063583374
      ],
      "min": [
        -0.9610171914100647,
        -0.9999622106552124,
        -0.99811607599258423
      ],
      "type": "VEC3"
    },
    {
      "bufferView": 3,
      "byteOffset": 4055488,
      "componentType": 5126,
      "count": 295,
      "max": [
        0,
        0,
        0,
        1
      ],
      "min": [
        0,
        0,
        0,
        1
      ],
      "type": "VEC4"
    },
    {
      "bufferView": 3,
      "byteOffset": 4060208,
      "componentType": 5126,
      "count": 295,
      "max": [
        0.75294101238250732,
        0.75294101238250732,
        0.75294101238250732,
        1
      ],
      "min": [
        0.75294101238250732,
        0.75294101238250732,
        0.75294101238250732,
        1
      ],
      "type": "VEC4"
    },
    {
      "bufferView": 1,
      "byteOffset": 1013872,
      "componentType": 5126,
      "count": 295,
      "max": [
        0.47570100426673889,
        0.69507497549057007
      ],
      "min": [
        0.47570100426673889,
        0.69507497549057007
      ],
      "type": "VEC2"
    },
    {
      "bufferView": 0,
      "byteOffset": 2088408,
      "componentType": 5125,
      "count": 558,
      "max": [
        294
      ],
      "min": [
        0
      ],
      "type": "SCALAR"
    }
  ],
  "asset": {
    "extras": {
      "author": "Sakado (https://sketchfab.com/HermanKruger)",
      "license": "CC-BY-4.0 (http://creativecommons.org/licenses/by/4.0/)",
      "source": "https://sketchfab.com/3d-models/immeuble-xviiie-s-feydeau-nantes-france-8777a54c67f54ef0ac52d4f9d8893bce",
      "title": "Immeuble XVIIIe s - Feydeau NANTES (France)"
    },
    "generator": "Sketchfab-7.7.0",
    "version": "2.0"
  },
  "bufferViews": [
    {
      "buffer": 0,
      "byteLength": 2090640,
      "byteOffset": 0,
      "name": "floatBufferViews",
      "target": 34963
    },
    {
      "buffer": 0,
      "byteLength": 1016232,
      "byteOffset": 2090640,
      "byteStride": 8,
      "name": "floatBufferViews",
      "target": 34962
    },
    {
      "buffer": 0,
      "byteLength": 3048696,
      "byteOffset": 3106872,
      "byteStride": 12,
      "name": "floatBufferViews",
      "target": 34962
    },
    {
      "buffer": 0,
      "byteLength": 4064928,
      "byteOffset": 6155568,
      "byteStride": 16,
      "name": "floatBufferViews",
      "target": 34962
    }
  ],
  "buffers": [
    {
      "byteLength": 10220496,
      "uri": "scene.bin"
    }
  ],
  "extensionsUsed": [
    "KHR_materials_unlit"
  ],
  "images": [
    {
      "uri": "textures/material_0_baseColor.jpeg"
    }
  ],
  "materials": [
    {
      "doubleSided": true,
      "emissiveFactor": [
        0,
        0,
        0
      ],
      "extensions": {
        "KHR_materials_unlit": {}
      },
      "name": "material_0",
      "pbrMetallicRoughness": {
        "baseColorFactor": [
          1,
          1,
          1,
          1
        ],
        "baseColorTexture": {
          "index": 0,
          "texCoord": 0
        },
        "metallicFactor": 0,
        "roughnessFactor": 1
      }
    },
    {
      "doubleSided": true,
      "emissiveFactor": [
        0,
        0,
        0
      ],
      "extensions": {
        "KHR_materials_unlit": {}
      },
      "name": "material_1",
      "pbrMetallicRoughness": {
        "baseColorFactor": [
          0.50196099999999999,
          0.50196099999999999,
          0.50196099999999999,
          1
        ],
        "metallicFactor": 0,
        "roughnessFactor": 1
      }
    }
  ],
  "meshes": [
    {
      "primitives": [
        {
          "attributes": {
            "COLOR_0": 3,
            "NORMAL": 1,
            "POSITION": 0,
            "TANGENT": 2,
            "TEXCOORD_0": 4
          },
          "indices": 5,
          "material": 0,
          "mode": 4
        }
      ]
    },
    {
      "primitives": [
        {
          "attributes": {
            "COLOR_0": 9,
            "NORMAL": 7,
            "POSITION": 6,
            "TANGENT": 8,
            "TEXCOORD_0": 10
          },
          "indices": 11,
          "material": 0,
          "mode": 4
        }
      ]
    },
    {
      "primitives": [
        {
          "attributes": {
            "COLOR_0": 15,
            "NORMAL": 13,
            "POSITION": 12,
            "TANGENT": 14,
            "TEXCOORD_0": 16
          },
          "indices": 17,
          "material": 1,
          "mode": 4
        }
      ]
    }
  ],
  "nodes": [
    {
      "children": [
        1
      ],
      "name": "RootNode (gltf orientation matrix)",
      "rotation": [
        -0.70710678118654746,
        -0,
        -0,
        0.70710678118654757
      ]
    },
    {
      "children": [
        2
      ],
      "matrix": [
        1,
        0,
        0,
        0,
        0,
        0,
        -1,
        0,
        0,
        1,
        0,
        0,
        0,
        -10.151371002197266,
        8.2362842559814453,
        1
      ],
      "name": "RootNode (model correction matrix)"
    },
    {
      "children": [
        3,
        4,
        5
      ],
      "name": "Model.obj.cleaner"
    },
    {
      "mesh": 0,
      "name": ""
    },
    {
      "mesh": 1,
      "name": ""
    },
    {
      "mesh": 2,
      "name": ""
    }
  ],
  "samplers": [
    {
      "magFilter": 9729,
      "minFilter": 9987,
      "wrapS": 10497,
      "wrapT": 10497
    }
  ],
  "scene": 0,
  "scenes": [
    {
      "name": "OSG_Scene",
      "nodes": [
        0
      ]
    }
  ],
  "textures": [
    {
      "sampler": 0,
      "source": 0
    }
  ]
}

